HIERARCHY
ROOT hip
{
	OFFSET 0.000000 0.000000 0.000000
	CHANNELS 6 Xposition Yposition Zposition Xrotation Zrotation Yrotation 
	JOINT abdomen
	{
		OFFSET 0.000000 3.422050 0.000000
		CHANNELS 3 Xrotation Zrotation Yrotation 
		JOINT chest
		{
			OFFSET 0.000000 8.486693 -0.684411
			CHANNELS 3 Xrotation Zrotation Yrotation 
			JOINT neck
			{
				OFFSET 0.000000 10.266162 -0.273764
				CHANNELS 3 Xrotation Zrotation Yrotation 
				JOINT head
				{
					OFFSET 0.000000 3.148285 0.000000
					CHANNELS 3 Xrotation Zrotation Yrotation 
					End Site
					{
						OFFSET 0.000000 3.148289 0.000000
					}
				}
			}
			JOINT lCollar
			{
				OFFSET 3.422053 6.707223 -0.821293
				CHANNELS 3 Yrotation Zrotation Xrotation 
				JOINT lShldr
				{
					OFFSET 3.285171 0.000000 0.000000
					CHANNELS 3 Zrotation Yrotation Xrotation 
					JOINT lForeArm
					{
						OFFSET 10.129278 0.000000 0.000000
						CHANNELS 3 Yrotation Zrotation Xrotation 
						JOINT lHand
						{
							OFFSET 8.486692 0.000000 0.000000
							CHANNELS 3 Zrotation Yrotation Xrotation 
							End Site
							{
								OFFSET 4.106464 0.000000 0.000000
							}
						}
					}
				}
			}
			JOINT rCollar
			{
				OFFSET -3.558935 6.707223 -0.821293
				CHANNELS 3 Yrotation Zrotation Xrotation 
				JOINT rShldr
				{
					OFFSET -3.148289 0.000000 0.000000
					CHANNELS 3 Zrotation Yrotation Xrotation 
					JOINT rForeArm
					{
						OFFSET -10.266159 0.000000 0.000000
						CHANNELS 3 Yrotation Zrotation Xrotation 
						JOINT rHand
						{
							OFFSET -8.349810 0.000000 0.000000
							CHANNELS 3 Zrotation Yrotation Xrotation 
							End Site
							{
								OFFSET -4.106464 0.000000 0.000000
							}
						}
					}
				}
			}
		}
	}
	JOINT lThigh
	{
		OFFSET 5.338403 -1.642589 1.368821
		CHANNELS 3 Xrotation Zrotation Yrotation 
		JOINT lShin
		{
			OFFSET -2.053232 -20.121670 0.000000
			CHANNELS 3 Xrotation Zrotation Yrotation 
			JOINT lFoot
			{
				OFFSET 0.000000 -19.300380 -1.231939
				CHANNELS 3 Xrotation Yrotation Zrotation 
				End Site
				{
					OFFSET 0.000000 -2.463878 4.653993
				}
			}
		}
	}
	JOINT rThigh
	{
		OFFSET -5.338403 -1.642589 1.368821
		CHANNELS 3 Xrotation Zrotation Yrotation 
		JOINT rShin
		{
			OFFSET 2.053232 -20.121670 0.000000
			CHANNELS 3 Xrotation Zrotation Yrotation 
			JOINT rFoot
			{
				OFFSET 0.000000 -19.300380 -1.231939
				CHANNELS 3 Xrotation Yrotation Zrotation 
				End Site
				{
					OFFSET 0.000000 -2.463878 4.653993
				}
			}
		}
	}
}
MOTION
Frames: 15
Frame Time: 0.050000
0.000000 43.528500 0.000000 0.000000 0.000000 0.000000 0.000000 0.000000 0.000000 0.000000 0.000000 0.000000 0.000000 0.000000 0.000000 0.000000 0.000000 0.000000 0.000000 0.000000 0.000000 0.000000 0.000000 0.000000 0.000000 0.000000 0.000000 0.000000 0.000000 0.000000 0.000000 0.000000 0.000000 0.000000 0.000000 0.000000 0.000000 0.000000 0.000000 0.000000 0.000000 0.000000 0.000000 0.000000 0.000000 0.000000 0.000000 0.000000 0.000000 0.000000 0.000000 0.000000 0.000000 0.000000 0.000000 0.000000 0.000000 0.000000 0.000000 0.000000 
0.249306 18.684582 21.641945 0.000000 0.000000 180.000000 5.370824 0.437782 -0.264804 36.072666 9.358886 -0.128508 18.117622 -19.810556 0.334404 -45.003483 0.000000 0.000000 28.280329 -20.409103 -41.260498 -68.714439 -35.916595 9.779359 -117.400612 -3.693746 52.222206 -2.796128 -0.614825 -26.127609 -4.571915 46.790695 -61.873898 25.712219 -15.088557 19.809593 -43.999527 43.502926 39.358341 -24.222727 35.137287 -61.891140 -2.003141 7.975921 0.005838 92.001343 4.990005 -0.979768 59.877258 7.454453 5.180384 -0.012013 -6.047568 -0.004618 93.001930 -5.018865 0.024397 60.514439 -7.378034 -4.301147 
0.249306 18.768225 21.704792 -0.384303 0.000000 180.000000 5.370824 0.437782 -0.264804 34.438690 9.361138 -0.144037 20.254879 -19.810593 0.334399 -45.003483 0.000000 0.000000 27.733841 -20.277765 -39.813866 -68.714439 -35.916595 9.779359 -116.806549 -3.651725 52.291176 -2.506304 -1.390641 -25.326143 -5.837617 46.794392 -60.958290 24.660868 -15.639392 20.081799 -43.999531 43.502930 39.358345 -21.448034 36.549850 -60.098309 -2.605063 7.946624 -0.026264 92.001343 4.990005 -0.979768 59.877258 7.454453 5.180385 -0.621806 -6.029486 0.012137 93.001930 -5.018865 0.024397 60.514439 -7.378034 -4.301147 
0.249306 18.851868 21.767641 -0.768648 0.000000 180.000000 5.370823 0.437782 -0.264804 32.801029 9.362955 -0.159660 22.400455 -19.810635 0.334392 -45.003483 0.000000 0.000000 27.183054 -20.159115 -38.363487 -68.714439 -35.916595 9.779360 -116.212379 -3.608975 52.359718 -2.226938 -2.171306 -24.527376 -7.103965 46.784237 -60.042267 23.602730 -16.185907 20.365543 -43.999523 43.502922 39.358337 -18.559725 37.892559 -58.182682 -3.207107 7.916985 -0.058061 92.001343 4.990005 -0.979767 59.877258 7.454453 5.180384 -1.231762 -6.011220 0.028703 93.001930 -5.018865 0.024396 60.514439 -7.378033 -4.301147 
0.249306 18.935511 21.830488 -1.153026 0.000000 180.000000 5.370824 0.437782 -0.264804 31.160332 9.364332 -0.175357 24.552879 -19.810673 0.334385 -45.003483 0.000000 0.000000 26.628494 -20.053387 -36.910030 -68.714439 -35.916595 9.779359 -115.618149 -3.565511 52.427834 -1.958082 -2.956503 -23.731215 -8.370168 46.760208 -59.126617 22.537834 -16.727772 20.660849 -43.999527 43.502926 39.358341 -15.557468 39.157173 -56.143894 -3.809237 7.887007 -0.089547 92.001343 4.990005 -0.979768 59.877258 7.454453 5.180384 -1.841848 -5.992779 0.045075 93.001930 -5.018865 0.024397 60.514439 -7.378034 -4.301147 
0.249306 19.019152 21.893337 -1.537428 0.000000 180.000000 5.370824 0.437782 -0.264804 29.517263 9.365264 -0.191112 26.710669 -19.810715 0.334374 -45.003483 0.000000 0.000000 26.070721 -19.960762 -35.454136 -68.714439 -35.916595 9.779358 -115.023895 -3.521334 52.495499 -1.699789 -3.745916 -22.937538 -9.635423 46.722305 -58.212105 21.466185 -17.264641 20.967722 -43.999531 43.502926 39.358341 -12.442761 40.335537 -53.983456 -4.411425 7.856701 -0.120717 92.001343 4.990005 -0.979768 59.877258 7.454453 5.180384 -2.452028 -5.974158 0.061252 93.001930 -5.018865 0.024397 60.514439 -7.378034 -4.301147 
0.249306 19.102795 21.956184 -1.921847 0.000000 180.000000 5.370823 0.437782 -0.264804 27.872522 9.365755 -0.206903 28.872299 -19.810755 0.334363 -45.003483 0.000000 0.000000 25.510286 -19.881401 -33.996483 -68.714439 -35.916595 9.779359 -114.429642 -3.476453 52.562714 -1.452106 -4.539227 -22.146248 -10.898955 46.670582 -57.299549 20.387827 -17.796183 21.286158 -43.999527 43.502926 39.358337 -9.219202 41.419697 -51.704971 -5.013633 7.826067 -0.151566 92.001343 4.990005 -0.979768 59.877258 7.454453 5.180384 -3.062268 -5.955367 0.077230 93.001930 -5.018865 0.024397 60.514439 -7.378034 -4.301147 
0.249306 19.186438 22.019032 -2.306273 0.000000 180.000000 5.370824 0.437782 -0.264804 26.226751 9.365796 -0.222711 31.036243 -19.810793 0.334351 -45.003483 0.000000 0.000000 24.947763 -19.815434 -32.537743 -68.714439 -35.916595 9.779359 -113.835426 -3.430878 52.629463 -1.215082 -5.336114 -21.357224 -12.159980 46.605072 -56.389709 19.302792 -18.322060 21.616135 -43.999523 43.502922 39.358337 -5.892783 42.402039 -49.314415 -5.615829 7.795110 -0.182088 92.001343 4.990005 -0.979768 59.877258 7.454453 5.180384 -3.672535 -5.936405 0.093007 93.001930 -5.018865 0.024397 60.514439 -7.378034 -4.301147 
0.249306 19.270081 22.081881 -2.690697 0.000000 180.000000 5.370824 0.437782 -0.264804 24.580647 9.365390 -0.238518 33.200958 -19.810829 0.334337 -45.003483 0.000000 0.000000 24.383717 -19.762947 -31.078590 -68.714439 -35.916595 9.779359 -113.241272 -3.384614 52.695732 -0.988762 -6.136256 -20.570326 -13.417717 46.525829 -55.483330 18.211124 -18.841934 21.957623 -43.999527 43.502926 39.358341 -2.472104 43.275623 -46.820408 -6.217979 7.763836 -0.212278 92.001343 4.990005 -0.979768 59.877258 7.454453 5.180384 -4.282791 -5.917276 0.108580 93.001930 -5.018865 0.024397 60.514439 -7.378034 -4.301147 
0.249306 19.353724 22.144728 -3.075111 0.000000 180.000000 5.370824 0.437782 -0.264804 22.934881 9.364533 -0.254303 35.364910 -19.810869 0.334320 -45.003483 0.000000 0.000000 23.818714 -19.723997 -29.619709 -68.714439 -35.916595 9.779359 -112.647209 -3.337664 52.761509 -0.773192 -6.939327 -19.785437 -14.671422 46.432968 -54.581188 17.112890 -19.355476 22.310577 -43.999531 43.502934 39.358345 0.306029 44.624237 -45.015961 -6.820053 7.732251 -0.242133 92.001343 4.990005 -0.979768 59.877262 7.454453 5.180384 -4.893004 -5.897985 0.123946 93.001930 -5.018865 0.024397 60.514439 -7.378034 -4.301148 
0.249306 19.437366 22.207575 -3.459508 0.000000 180.000000 5.370824 0.437782 -0.264804 21.290136 9.363235 -0.270046 37.526539 -19.810904 0.334303 -45.003483 0.000000 0.000000 23.253351 -19.698612 -28.161787 -68.714439 -35.916595 9.779359 -112.053284 -3.290041 52.826782 -0.568414 -7.745005 -19.002420 -15.920360 46.326576 -53.683998 16.008173 -19.862360 22.674946 -43.999527 43.502926 39.358341 3.214173 45.909061 -43.073895 -7.422016 7.700359 -0.271646 92.001343 4.990005 -0.979768 59.877258 7.454453 5.180384 -5.503139 -5.878533 0.139103 93.001930 -5.018865 0.024396 60.514439 -7.378034 -4.301148 
0.249306 19.521008 22.270424 -3.843876 0.000000 180.000000 5.370824 0.437782 -0.264804 19.647095 9.361490 -0.285729 39.684326 -19.810940 0.334285 -45.003483 0.000000 0.000000 22.688196 -19.686781 -26.705509 -68.714439 -35.916595 9.779359 -111.459526 -3.241752 52.891544 -0.374473 -8.552968 -18.221142 -17.163803 46.206783 -52.792477 14.897042 -20.362259 23.050653 -43.999527 43.502926 39.358341 6.254914 47.122307 -40.991581 -8.023831 7.668165 -0.300813 92.001343 4.990005 -0.979768 59.877258 7.454453 5.180384 -6.113163 -5.858926 0.154049 93.001930 -5.018865 0.024397 60.514439 -7.378034 -4.301147 
0.249306 19.604650 22.333271 -4.228209 0.000000 180.000000 5.370824 0.437782 -0.264804 18.006409 9.359304 -0.301333 41.836750 -19.810972 0.334265 -45.003483 0.000000 0.000000 22.123816 -19.688461 -25.251537 -68.714439 -35.916595 9.779359 -110.865944 -3.192804 52.955788 -0.191409 -9.362892 -17.441462 -18.401058 46.073727 -51.907310 13.779604 -20.854849 23.437599 -43.999527 43.502926 39.358341 9.428964 48.256115 -38.768276 -8.625473 7.635677 -0.329630 92.001343 4.990005 -0.979768 59.877258 7.454453 5.180384 -6.723037 -5.839164 0.168780 93.001930 -5.018865 0.024397 60.514439 -7.378034 -4.301147 
0.249306 19.688293 22.396120 -4.612497 0.000000 180.000000 5.370824 0.437782 -0.264804 16.368765 9.356688 -0.316838 43.982330 -19.811005 0.334243 -45.003483 0.000000 0.000000 21.560804 -19.703587 -23.800571 -68.714439 -35.916595 9.779359 -110.272621 -3.143209 53.019520 -0.019267 -10.174448 -16.663219 -19.631454 45.927559 -51.029148 12.655966 -21.339815 23.835695 -43.999527 43.502926 39.358341 12.734670 49.302597 -36.405594 -9.226901 7.602899 -0.358091 92.001343 4.990005 -0.979768 59.877258 7.454453 5.180384 -7.332730 -5.819251 0.183295 93.001930 -5.018865 0.024397 60.514439 -7.378034 -4.301147 
0.249306 19.771936 22.458967 -4.997691 0.000000 180.000000 5.370824 0.437782 -0.264804 14.734812 9.353641 -0.332227 46.119598 -19.811043 0.334220 -45.003483 0.000000 0.000000 20.999701 -19.732038 -22.353256 -68.714439 -35.916595 9.779359 -109.679527 -3.092970 53.082687 0.141912 -10.987319 -15.886279 -20.854370 45.768494 -50.158669 11.526258 -21.816849 24.244816 -43.999527 43.502926 39.358341 16.167601 50.254086 -33.907932 -9.828088 7.569837 -0.386194 92.001343 4.990005 -0.979768 59.877258 7.454453 5.180384 -7.942206 -5.799193 0.197591 93.001930 -5.018865 0.024397 60.514439 -7.378034 -4.301147 
